<svg width="37" height="36" viewBox="0 0 37 36" fill="none" xmlns="http://www.w3.org/2000/svg">
<g id="Data">
<path id="Vector" fill-rule="evenodd" clip-rule="evenodd" d="M7.77606 4.65396C9.05953 4 10.7397 4 14.1 4H22.9C26.2603 4 27.9405 4 29.2239 4.65396C30.3529 5.2292 31.2708 6.14709 31.846 7.27606C32.5 8.55953 32.5 10.2397 32.5 13.6V22.4C32.5 25.7603 32.5 27.4405 31.846 28.7239C31.2708 29.8529 30.3529 30.7708 29.2239 31.346C27.9405 32 26.2603 32 22.9 32H14.1C10.7397 32 9.05953 32 7.77606 31.346C6.64708 30.7708 5.7292 29.8529 5.15396 28.7239C4.5 27.4405 4.5 25.7603 4.5 22.4V13.6C4.5 10.2397 4.5 8.55953 5.15396 7.27606C5.7292 6.14708 6.64709 5.2292 7.77606 4.65396ZM9.9306 15.9094C12.0532 13.6546 15.1046 12.2383 18.5008 12.2383C21.897 12.2383 24.9483 13.6546 27.071 15.9094C27.3549 16.211 27.8295 16.2253 28.1311 15.9414C28.4327 15.6575 28.4471 15.1828 28.1632 14.8812C25.7644 12.3331 22.3211 10.7383 18.5008 10.7383C14.6805 10.7383 11.2372 12.3331 8.83841 14.8812C8.55449 15.1828 8.56882 15.6575 8.87042 15.9414C9.17202 16.2253 9.64668 16.211 9.9306 15.9094ZM12.5056 18.5438C14.0731 17.0552 16.1813 16.1453 18.5008 16.1453C20.8202 16.1453 22.9285 17.0552 24.4959 18.5438C24.7963 18.829 25.271 18.8168 25.5563 18.5164C25.8415 18.216 25.8292 17.7413 25.5289 17.4561C23.6951 15.7146 21.2215 14.6453 18.5008 14.6453C15.7801 14.6453 13.3065 15.7146 11.4727 17.4561C11.1723 17.7413 11.1601 18.216 11.4453 18.5164C11.7305 18.8168 12.2053 18.829 12.5056 18.5438ZM15.7033 21.1982C16.2329 20.7894 16.6108 20.5158 17.017 20.3324C17.403 20.1581 17.8465 20.0523 18.5008 20.0523C19.1551 20.0523 19.5986 20.1581 19.9846 20.3324C20.3907 20.5158 20.7687 20.7894 21.2983 21.1982C21.6261 21.4514 22.0971 21.3908 22.3503 21.0629C22.6034 20.7351 22.5428 20.2641 22.2149 20.0109C21.6927 19.6077 21.1881 19.2301 20.602 18.9654C19.9958 18.6916 19.3373 18.5523 18.5008 18.5523C17.6643 18.5523 17.0058 18.6916 16.3996 18.9654C15.8135 19.2301 15.3089 19.6077 14.7866 20.0109C14.4588 20.2641 14.3982 20.7351 14.6513 21.0629C14.9044 21.3908 15.3754 21.4514 15.7033 21.1982ZM18.5008 22.4592C17.7269 22.4592 17.0996 23.0866 17.0996 23.8604C17.0996 24.6342 17.7269 25.2616 18.5008 25.2616C19.2746 25.2616 19.9019 24.6342 19.9019 23.8604C19.9019 23.0866 19.2746 22.4592 18.5008 22.4592Z" fill="#F87171"/>
</g>
</svg>
