<svg width="37" height="36" viewBox="0 0 37 36" fill="none" xmlns="http://www.w3.org/2000/svg">
<g id="memory-card">
<path id="Vector" fill-rule="evenodd" clip-rule="evenodd" d="M14.752 4.47205C15.7598 4 16.9114 4 19.2146 4H20.2907C25.0047 4 27.3618 4 28.8262 5.46447C30.2907 6.92893 30.2907 9.28595 30.2907 14V22C30.2907 26.714 30.2907 29.0711 28.8262 30.5355C27.3618 32 25.0047 32 20.2907 32H17.5C12.786 32 10.4289 32 8.96447 30.5355C7.5 29.0711 7.5 26.714 7.5 22V16.0576C7.5 14.2659 7.5 13.3701 7.79864 12.5452C8.09728 11.7203 8.67078 11.0321 9.81778 9.65573L9.81779 9.65572L11.5324 7.59816L11.5324 7.59815C13.0069 5.82879 13.7441 4.94411 14.752 4.47205ZM19.6455 20.8C19.6455 20.3858 19.3097 20.05 18.8955 20.05C18.4813 20.05 18.1455 20.3858 18.1455 20.8V26.0093C18.1455 26.4235 18.4813 26.7593 18.8955 26.7593C19.3097 26.7593 19.6455 26.4235 19.6455 26.0093V20.8ZM23.5525 20.8C23.5525 20.3858 23.2167 20.05 22.8025 20.05C22.3883 20.05 22.0525 20.3858 22.0525 20.8V26.0093C22.0525 26.4235 22.3883 26.7593 22.8025 26.7593C23.2167 26.7593 23.5525 26.4235 23.5525 26.0093V20.8ZM15.7385 23.4046C15.7385 22.9904 15.4028 22.6546 14.9885 22.6546C14.5743 22.6546 14.2385 22.9904 14.2385 23.4046V26.0093C14.2385 26.4235 14.5743 26.7593 14.9885 26.7593C15.4028 26.7593 15.7385 26.4235 15.7385 26.0093V23.4046Z" fill="#F87171"/>
</g>
</svg>
