<svg width="37" height="37" viewBox="0 0 37 37" fill="none" xmlns="http://www.w3.org/2000/svg">
<path fill-rule="evenodd" clip-rule="evenodd" d="M7.77606 5.32095C9.05953 4.66699 10.7397 4.66699 14.1 4.66699H22.9C26.2603 4.66699 27.9405 4.66699 29.2239 5.32095C30.3529 5.89619 31.2708 6.81408 31.846 7.94305C32.5 9.22652 32.5 10.9067 32.5 14.267V23.067C32.5 26.4273 32.5 28.1075 31.846 29.3909C31.2708 30.5199 30.3529 31.4378 29.2239 32.013C27.9405 32.667 26.2603 32.667 22.9 32.667H14.1C10.7397 32.667 9.05953 32.667 7.77606 32.013C6.64708 31.4378 5.7292 30.5199 5.15396 29.3909C4.5 28.1075 4.5 26.4273 4.5 23.067V14.267C4.5 10.9067 4.5 9.22652 5.15396 7.94305C5.7292 6.81408 6.64709 5.89619 7.77606 5.32095ZM9.9306 16.5764C12.0532 14.3216 15.1046 12.9053 18.5008 12.9053C21.897 12.9053 24.9483 14.3216 27.071 16.5764C27.3549 16.878 27.8295 16.8923 28.1311 16.6084C28.4327 16.3245 28.4471 15.8498 28.1632 15.5482C25.7644 13.0001 22.3211 11.4053 18.5008 11.4053C14.6805 11.4053 11.2372 13.0001 8.83841 15.5482C8.55449 15.8498 8.56882 16.3245 8.87042 16.6084C9.17202 16.8923 9.64668 16.878 9.9306 16.5764ZM12.5056 19.2108C14.0731 17.7222 16.1813 16.8123 18.5008 16.8123C20.8202 16.8123 22.9285 17.7222 24.4959 19.2108C24.7963 19.496 25.271 19.4838 25.5563 19.1834C25.8415 18.883 25.8292 18.4083 25.5289 18.1231C23.6951 16.3816 21.2215 15.3123 18.5008 15.3123C15.7801 15.3123 13.3065 16.3816 11.4727 18.1231C11.1723 18.4083 11.1601 18.883 11.4453 19.1834C11.7305 19.4838 12.2053 19.496 12.5056 19.2108ZM15.7033 21.8652C16.2329 21.4564 16.6108 21.1828 17.017 20.9994C17.403 20.8251 17.8465 20.7193 18.5008 20.7193C19.1551 20.7193 19.5986 20.8251 19.9846 20.9994C20.3907 21.1828 20.7687 21.4564 21.2983 21.8652C21.6261 22.1184 22.0971 22.0578 22.3503 21.7299C22.6034 21.4021 22.5428 20.9311 22.2149 20.6779C21.6927 20.2747 21.1881 19.8971 20.602 19.6324C19.9958 19.3586 19.3373 19.2193 18.5008 19.2193C17.6643 19.2193 17.0058 19.3586 16.3996 19.6324C15.8135 19.8971 15.3089 20.2747 14.7866 20.6779C14.4588 20.9311 14.3982 21.4021 14.6513 21.7299C14.9044 22.0578 15.3754 22.1184 15.7033 21.8652ZM18.5008 23.1262C17.7269 23.1262 17.0996 23.7536 17.0996 24.5274C17.0996 25.3012 17.7269 25.9286 18.5008 25.9286C19.2746 25.9286 19.9019 25.3012 19.9019 24.5274C19.9019 23.7536 19.2746 23.1262 18.5008 23.1262Z" fill="#F87171"/>
</svg>
