<svg width="37" height="36" viewBox="0 0 37 36" fill="none" xmlns="http://www.w3.org/2000/svg">
<g id="memory-card">
<path id="Vector" fill-rule="evenodd" clip-rule="evenodd" d="M5.7764 4.30482C6.33573 4 7.03171 4 8.42368 4H10.2271C11.3438 4 11.9021 4 12.3666 4.19516C12.7765 4.36735 13.133 4.64571 13.3995 5.00155C13.7014 5.40486 13.8369 5.94653 14.1077 7.02985L14.1077 7.02986L14.823 9.89119C15.1135 11.053 15.2587 11.6339 15.2368 12.204C15.2175 12.7089 15.1026 13.2055 14.8984 13.6676C14.6678 14.1894 14.2822 14.6476 13.5112 15.5639L11.761 17.644C11.2235 18.2828 10.9548 18.6022 10.8361 19.0015C10.7397 19.3262 10.7333 19.7556 10.82 20.083C10.9266 20.4857 11.1533 20.7721 11.6066 21.3448C12.5698 22.5615 13.6549 23.6662 14.8527 24.6496C15.3982 25.0974 15.6709 25.3213 16.0586 25.4363C16.3741 25.5299 16.7906 25.5392 17.11 25.4598C17.5024 25.3623 17.8253 25.1205 18.4711 24.6369L21.0354 22.7169C21.9303 22.0468 22.3778 21.7118 22.8761 21.5148C23.3175 21.3403 23.7865 21.2458 24.2611 21.2357C24.7967 21.2243 25.339 21.3598 26.4236 21.631L26.4236 21.631L29.4706 22.3927C30.5539 22.6635 31.0955 22.799 31.4989 23.101C31.8547 23.3674 32.1331 23.7239 32.3053 24.1338C32.5004 24.5983 32.5004 25.1566 32.5004 26.2733V28.0767C32.5004 29.4684 32.5004 30.1642 32.1954 30.7237C31.9427 31.1872 31.4731 31.6151 30.9881 31.8237C30.4027 32.0754 29.7704 32.0164 28.5057 31.8985C24.173 31.4944 19.9712 30.3563 16.193 28.0119C12.8922 25.9637 10.1874 23.1973 8.20691 19.8421C6.04353 16.1769 4.98554 12.1454 4.60061 7.99474C4.48326 6.7293 4.42458 6.09658 4.67646 5.51149C4.88521 5.02657 5.31282 4.55746 5.7764 4.30482ZM21.0737 6.8412C20.6595 6.8412 20.3237 7.17698 20.3237 7.5912C20.3237 8.00541 20.6595 8.3412 21.0737 8.3412C24.9869 8.3412 28.1591 11.5134 28.1591 15.4266C28.1591 15.8408 28.4949 16.1766 28.9091 16.1766C29.3233 16.1766 29.6591 15.8408 29.6591 15.4266C29.6591 10.685 25.8153 6.8412 21.0737 6.8412ZM21.0737 10.7589C20.6595 10.7589 20.3237 11.0947 20.3237 11.5089C20.3237 11.9231 20.6595 12.2589 21.0737 12.2589C21.7133 12.2589 22.472 12.6901 23.138 13.4016C23.4828 13.77 23.7682 14.1785 23.9638 14.5592C24.167 14.9546 24.2414 15.2573 24.2414 15.4266C24.2414 15.8408 24.5772 16.1766 24.9914 16.1766C25.4056 16.1766 25.7414 15.8408 25.7414 15.4266C25.7414 14.9189 25.5528 14.3695 25.2979 13.8736C25.0355 13.3629 24.668 12.8412 24.2331 12.3766C23.4498 11.5397 22.3213 10.7589 21.0737 10.7589Z" fill="#F87171"/>
</g>
</svg>
