<svg width="37" height="36" viewBox="0 0 37 36" fill="none" xmlns="http://www.w3.org/2000/svg">
<g id="smartphone">
<path id="Vector" d="M19.2146 4C16.9114 4 15.7598 4 14.752 4.47205C13.7441 4.94411 13.0069 5.82879 11.5324 7.59816L9.81779 9.65572C8.67079 11.0321 8.09728 11.7203 7.79864 12.5452C7.5 13.3701 7.5 14.2659 7.5 16.0576V22C7.5 26.714 7.5 29.0711 8.96447 30.5355C10.4289 32 12.786 32 17.5 32H20.2907C25.0047 32 27.3618 32 28.8262 30.5355C30.2907 29.0711 30.2907 26.714 30.2907 22V14C30.2907 9.28595 30.2907 6.92893 28.8262 5.46447C27.3618 4 25.0047 4 20.2907 4H19.2146Z" fill="#F87171"/>
<path id="Vector_2" d="M24.5 21C24.5 18.2386 22.2614 16 19.5 16C16.7386 16 14.9167 18.5 14.9167 18.5M14.5 21C14.5 23.7614 16.7222 26 19.5 26C22.8333 26 24.0833 23.5 24.0833 23.5M24.0833 23.5L24.0833 25.5833M24.0833 23.5L22 23.5M14.9167 18.5L17 18.5M14.9167 18.5L14.9167 16.4167" stroke="white" stroke-linecap="round" stroke-linejoin="round"/>
</g>
</svg>
