<svg width="37" height="36" viewBox="0 0 37 36" fill="none" xmlns="http://www.w3.org/2000/svg">
<g id="wallet-plus">
<g id="Vector">
<path fill-rule="evenodd" clip-rule="evenodd" d="M4.5 7.58143C4.5 5.60348 6.10345 4.00004 8.0814 4.00004L17.0846 4.00002C18.4712 3.99973 19.3643 3.99955 20.1988 4.23787C20.9363 4.44851 21.6283 4.79448 22.2393 5.25813C22.9306 5.7827 23.4663 6.4973 24.2981 7.60678L25.5124 9.2259C25.9416 9.23664 26.3324 9.25435 26.6894 9.28352C27.6184 9.35943 28.4046 9.5178 29.1224 9.88354C30.2863 10.4766 31.2327 11.423 31.8258 12.5869C32.1915 13.3048 32.3499 14.0909 32.4258 15.0199C32.4438 15.2404 32.4574 15.4737 32.4678 15.7209H30.2209C27.5237 15.7209 25.3372 17.9074 25.3372 20.6047C25.3372 23.3019 27.5237 25.4884 30.2209 25.4884H32.4678C32.4574 25.7356 32.4438 25.9689 32.4258 26.1894C32.3499 27.1184 32.1915 27.9046 31.8258 28.6224C31.2327 29.7863 30.2863 30.7327 29.1224 31.3258C28.4046 31.6915 27.6184 31.8499 26.6894 31.9258C25.7808 32 24.6537 32 23.2314 32H13.7686C12.3463 32 11.2192 32 10.3106 31.9258C9.38157 31.8499 8.59545 31.6915 7.87764 31.3258C6.71366 30.7327 5.76732 29.7863 5.17424 28.6224C4.8085 27.9046 4.65012 27.1184 4.57422 26.1894C4.49999 25.2808 4.49999 24.1537 4.5 22.7314V7.58143ZM16.9372 5.95353C18.5219 5.95353 19.1235 5.96235 19.6623 6.11625C20.167 6.26037 20.6404 6.49709 21.0585 6.81433C21.5049 7.15308 21.8729 7.62905 22.8237 8.89678L23.0581 9.2093H8.06999C7.17617 9.20317 6.45349 8.4767 6.45349 7.58143C6.45349 6.68237 7.18233 5.95353 8.0814 5.95353H16.9372Z" fill="#F87171"/>
<path d="M32.4994 23.5349C32.5 23.278 32.5 23.0104 32.5 22.7314V18.4742C32.5 18.1966 32.5 17.9302 32.4994 17.6744H30.2209C28.6026 17.6744 27.2907 18.9863 27.2907 20.6047C27.2907 22.223 28.6026 23.5349 30.2209 23.5349H32.4994Z" fill="#F87171"/>
</g>
</g>
</svg>
